<?xml version="1.0" standalone="no"?>
<!DOCTYPE svg PUBLIC "-//W3C//DTD SVG 20010904//EN"
 "http://www.w3.org/TR/2001/REC-SVG-20010904/DTD/svg10.dtd">
<svg version="1.0" xmlns="http://www.w3.org/2000/svg"
 width="260.000000pt" height="241.000000pt" viewBox="0 0 260.000000 241.000000"
 preserveAspectRatio="xMidYMid meet">

<g transform="translate(0.000000,241.000000) scale(0.100000,-0.100000)"
fill="#000000" stroke="none">
<path d="M882 2113 c-176 -104 -336 -273 -425 -448 -121 -240 -123 -586 -5
-860 159 -369 531 -578 978 -548 l95 7 -84 13 c-239 38 -481 150 -637 296
-149 139 -234 290 -270 475 -72 374 40 728 318 1005 53 53 96 97 95 97 -1 0
-31 -17 -65 -37z"/>
<path d="M1303 2046 c-215 -57 -381 -192 -500 -406 -152 -271 -124 -598 72
-855 50 -66 165 -186 165 -174 0 4 -22 39 -48 80 -185 283 -223 604 -102 855
45 93 133 209 205 271 73 62 191 129 285 162 96 33 246 53 342 46 l63 -5 -70
21 c-48 14 -109 22 -195 25 -110 4 -136 1 -217 -20z"/>
<path d="M1585 1863 c-290 -36 -499 -215 -570 -488 -15 -57 -34 -296 -22 -285
2 3 15 46 27 95 67 273 212 457 428 542 62 24 79 27 217 27 133 1 158 -2 220
-23 128 -43 253 -126 339 -223 45 -51 46 -52 24 -13 -142 254 -406 400 -663
368z"/>
<path d="M1555 1566 c-113 -32 -198 -81 -288 -165 -76 -71 -76 -85 -1 -40 121
74 292 129 397 129 65 0 165 -28 221 -60 106 -60 204 -182 231 -287 19 -73 19
-251 0 -358 -8 -43 -12 -81 -10 -84 7 -6 65 128 81 189 24 88 28 205 10 282
-37 160 -166 306 -327 374 -79 33 -234 43 -314 20z"/>
<path d="M1570 1265 c0 -59 -2 -65 -21 -65 -24 0 -76 33 -101 64 l-17 21 -33
-32 -33 -33 39 -32 c77 -65 132 -88 210 -88 82 0 142 24 214 86 l41 35 -34 31
-35 30 -28 -29 c-32 -35 -88 -66 -102 -58 -6 3 -10 35 -10 71 l0 64 -45 0 -45
0 0 -65z"/>
<path d="M1296 1143 c-25 -31 -27 -37 -14 -47 21 -16 68 -86 68 -102 0 -10
-17 -14 -65 -14 l-65 0 0 -45 0 -45 64 0 c36 0 68 -5 71 -10 8 -13 -29 -87
-61 -121 l-24 -25 28 -32 29 -32 25 28 c110 117 129 265 49 386 -14 22 -37 52
-51 68 l-25 27 -29 -36z"/>
<path d="M1870 1138 c-51 -55 -90 -147 -90 -214 0 -70 37 -157 92 -217 l35
-38 27 32 27 32 -30 31 c-31 32 -51 74 -51 107 0 17 7 19 63 19 l62 0 0 45 0
45 -57 0 c-31 0 -60 4 -63 10 -8 13 11 48 47 87 l30 31 -23 31 c-12 17 -26 31
-30 31 -5 0 -22 -15 -39 -32z"/>
<path d="M1580 1033 c-82 -30 -91 -151 -14 -188 96 -46 185 43 139 138 -21 45
-77 68 -125 50z"/>
<path d="M1565 771 c-78 -20 -200 -106 -189 -134 3 -6 17 -21 31 -31 23 -17
27 -17 37 -4 18 24 87 68 107 68 17 0 19 -8 19 -62 l0 -63 45 0 45 0 0 63 c0
47 3 62 14 62 30 0 72 -22 97 -52 l26 -32 31 23 c18 12 32 28 32 36 0 7 -19
28 -42 46 -82 65 -185 98 -253 80z"/>
</g>
</svg>
